<?xml version="1.0" standalone="no"?>
<!DOCTYPE svg PUBLIC "-//W3C//DTD SVG 20010904//EN"
 "http://www.w3.org/TR/2001/REC-SVG-20010904/DTD/svg10.dtd">
<svg version="1.0" xmlns="http://www.w3.org/2000/svg"
 width="240.000000pt" height="240.000000pt" viewBox="0 0 240.000000 240.000000"
 preserveAspectRatio="xMidYMid meet">
<metadata>
Created by potrace 1.11, written by Peter Selinger 2001-2013
</metadata>
<g transform="translate(0.000000,240.000000) scale(0.100000,-0.100000)"
fill="#000000" stroke="none">
<path d="M735 2369 c4 -6 1 -10 -6 -8 -27 3 -40 -1 -34 -11 3 -5 0 -7 -7 -5
-23 9 -88 -69 -88 -104 0 -17 -4 -31 -10 -31 -7 0 -10 -347 -10 -1021 0 -720
3 -1018 11 -1014 6 4 10 1 8 -6 -3 -28 1 -40 13 -33 7 5 9 2 5 -9 -4 -10 7
-28 34 -51 36 -34 57 -41 102 -37 9 1 17 -3 17 -8 0 -8 133 -11 430 -11 280 0
430 3 430 10 0 6 18 10 41 10 28 0 38 4 33 12 -5 7 -3 8 5 3 15 -9 75 47 96
89 13 25 15 177 15 1048 0 616 -4 1025 -9 1036 -6 9 -12 29 -16 45 -3 15 -11
27 -18 27 -6 0 -23 14 -36 30 -20 25 -30 30 -70 31 -35 0 -41 2 -26 9 12 5
-178 9 -448 9 -329 1 -466 -2 -462 -10z m1053 -1146 l-3 -888 -580 0 -580 0
-3 888 -2 887 585 0 585 0 -2 -887z"/>
<path d="M1153 1979 c-17 -5 -46 -26 -62 -46 -26 -32 -31 -46 -31 -92 0 -51 2
-57 45 -98 40 -38 51 -43 91 -43 102 0 154 64 146 182 -3 34 -62 94 -103 102
-38 7 -45 7 -86 -5z"/>
<path d="M1125 1441 c-67 -40 -65 -20 -65 -546 l0 -476 143 3 142 3 0 470 0
470 -24 34 c-42 59 -136 79 -196 42z"/>
</g>
</svg>
